# xmcd
#
# Track frame offsets:
#	150
#	9068
#	60672
#	96154
#	131354
#	161582
#	172527
#	189115
#
# Disc length: 3417 seconds
#
# Revision: 0
# Processed by: cddbd v1.5.2PL0 Copyright (c) Steve Scherf et al.
# Submitted via: audiograbber 1.83.01
#
DISCID=4b0d5708
DTITLE=Grateful Dead - 93-12-12 San Diego Sports Arena, San Diego CA
DYEAR=1900
DGENRE=
TTITLE0=Tuning
TTITLE1=Shakedown Street
TTITLE2=Samson and Delilah
TTITLE3=Ship Of Fools
TTITLE4=Truckin'
TTITLE5=Nobody's Fault But Mine
TTITLE6=That Would Be Something
TTITLE7=Drums
EXTD=
EXTT0=
EXTT1=
EXTT2=
EXTT3=
EXTT4=
EXTT5=
EXTT6=
EXTT7=
PLAYORDER=
